<?xml version="1.0" standalone="no"?>
<!DOCTYPE svg PUBLIC "-//W3C//DTD SVG 20010904//EN"
 "http://www.w3.org/TR/2001/REC-SVG-20010904/DTD/svg10.dtd">
<svg version="1.0" xmlns="http://www.w3.org/2000/svg"
 width="320.000000pt" height="320.000000pt" viewBox="0 0 320.000000 320.000000"
 preserveAspectRatio="xMidYMid meet">
<metadata>
Created by potrace 1.14, written by Peter Selinger 2001-2017
</metadata>
<g transform="translate(0.000000,320.000000) scale(0.100000,-0.100000)"
fill="#000000" stroke="none">
<path d="M0 1600 l0 -1600 1600 0 1600 0 0 1600 0 1600 -1600 0 -1600 0 0
-1600z m2840 0 l0 -1240 -1240 0 -1240 0 0 1240 0 1240 1240 0 1240 0 0 -1240z"/>
<path d="M1142 1403 c4 -537 5 -561 26 -637 37 -134 92 -205 197 -252 109 -49
331 -56 467 -14 85 26 144 71 185 140 73 121 83 224 83 841 l0 479 -110 0
-110 0 0 -487 c0 -505 -7 -637 -39 -709 -22 -48 -68 -94 -114 -111 -42 -15
-159 -16 -208 -1 -54 16 -103 67 -131 135 -23 58 -23 59 -26 616 l-3 557 -110
0 -110 0 3 -557z"/>
</g>
</svg>
